<svg width="32" height="32" viewBox="0 0 32 32" fill="none" xmlns="http://www.w3.org/2000/svg">
<path d="M5.68 25C7.36 23.9333 9.02 23.1267 10.66 22.58C12.3 22.0333 14.08 21.76 16 21.76C17.92 21.76 19.7067 22.0333 21.36 22.58C23.0133 23.1267 24.68 23.9333 26.36 25C27.5333 23.56 28.3667 22.1067 28.86 20.64C29.3533 19.1733 29.6 17.6267 29.6 16C29.6 12.1333 28.3 8.9 25.7 6.3C23.1 3.7 19.8667 2.4 16 2.4C12.1333 2.4 8.9 3.7 6.3 6.3C3.7 8.9 2.4 12.1333 2.4 16C2.4 17.6267 2.65333 19.1733 3.16 20.64C3.66667 22.1067 4.50667 23.56 5.68 25ZM16 17.2C14.4533 17.2 13.1533 16.6733 12.1 15.62C11.0467 14.5667 10.52 13.2667 10.52 11.72C10.52 10.1733 11.0467 8.87333 12.1 7.82C13.1533 6.76667 14.4533 6.24 16 6.24C17.5467 6.24 18.8467 6.76667 19.9 7.82C20.9533 8.87333 21.48 10.1733 21.48 11.72C21.48 13.2667 20.9533 14.5667 19.9 15.62C18.8467 16.6733 17.5467 17.2 16 17.2ZM16 32C13.76 32 11.6667 31.58 9.72 30.74C7.77333 29.9 6.08 28.7533 4.64 27.3C3.2 25.8467 2.06667 24.1467 1.24 22.2C0.413334 20.2533 0 18.1733 0 15.96C0 13.7733 0.42 11.7067 1.26 9.76C2.1 7.81333 3.24667 6.12 4.7 4.68C6.15333 3.24 7.85333 2.1 9.8 1.26C11.7467 0.42 13.8267 0 16.04 0C18.2267 0 20.2933 0.42 22.24 1.26C24.1867 2.1 25.88 3.24 27.32 4.68C28.76 6.12 29.9 7.81333 30.74 9.76C31.58 11.7067 32 13.7867 32 16C32 18.1867 31.58 20.2533 30.74 22.2C29.9 24.1467 28.76 25.8467 27.32 27.3C25.88 28.7533 24.1867 29.9 22.24 30.74C20.2933 31.58 18.2133 32 16 32Z" fill="white"/>
</svg>
