<svg width="22" height="22" viewBox="0 0 22 22" fill="none" xmlns="http://www.w3.org/2000/svg">
<path d="M2.44444 19.5556H4.18611L16.1333 7.60833L14.3917 5.86667L2.44444 17.8139V19.5556ZM0 22V16.8056L16.1333 0.702778C16.3778 0.478704 16.6477 0.305556 16.9431 0.183333C17.2384 0.0611111 17.5491 0 17.875 0C18.2009 0 18.5167 0.0611111 18.8222 0.183333C19.1278 0.305556 19.3926 0.488889 19.6167 0.733333L21.2972 2.44444C21.5417 2.66852 21.7199 2.93333 21.8319 3.23889C21.944 3.54444 22 3.85 22 4.15556C22 4.48148 21.944 4.79213 21.8319 5.0875C21.7199 5.38287 21.5417 5.65278 21.2972 5.89722L5.19444 22H0ZM15.2472 6.75278L14.3917 5.86667L16.1333 7.60833L15.2472 6.75278Z" fill="white"/>
</svg>
