<svg width="13" height="14" viewBox="0 0 13 14" fill="none" xmlns="http://www.w3.org/2000/svg">
<path d="M6.3 8.4C6.10167 8.4 5.93542 8.33292 5.80125 8.19875C5.66708 8.06458 5.6 7.89833 5.6 7.7C5.6 7.50167 5.66708 7.33542 5.80125 7.20125C5.93542 7.06708 6.10167 7 6.3 7C6.49833 7 6.66458 7.06708 6.79875 7.20125C6.93292 7.33542 7 7.50167 7 7.7C7 7.89833 6.93292 8.06458 6.79875 8.19875C6.66458 8.33292 6.49833 8.4 6.3 8.4ZM3.5 8.4C3.30167 8.4 3.13542 8.33292 3.00125 8.19875C2.86708 8.06458 2.8 7.89833 2.8 7.7C2.8 7.50167 2.86708 7.33542 3.00125 7.20125C3.13542 7.06708 3.30167 7 3.5 7C3.69833 7 3.86458 7.06708 3.99875 7.20125C4.13292 7.33542 4.2 7.50167 4.2 7.7C4.2 7.89833 4.13292 8.06458 3.99875 8.19875C3.86458 8.33292 3.69833 8.4 3.5 8.4ZM9.1 8.4C8.90167 8.4 8.73542 8.33292 8.60125 8.19875C8.46708 8.06458 8.4 7.89833 8.4 7.7C8.4 7.50167 8.46708 7.33542 8.60125 7.20125C8.73542 7.06708 8.90167 7 9.1 7C9.29833 7 9.46458 7.06708 9.59875 7.20125C9.73292 7.33542 9.8 7.50167 9.8 7.7C9.8 7.89833 9.73292 8.06458 9.59875 8.19875C9.46458 8.33292 9.29833 8.4 9.1 8.4ZM6.3 11.2C6.10167 11.2 5.93542 11.1329 5.80125 10.9987C5.66708 10.8646 5.6 10.6983 5.6 10.5C5.6 10.3017 5.66708 10.1354 5.80125 10.0013C5.93542 9.86708 6.10167 9.8 6.3 9.8C6.49833 9.8 6.66458 9.86708 6.79875 10.0013C6.93292 10.1354 7 10.3017 7 10.5C7 10.6983 6.93292 10.8646 6.79875 10.9987C6.66458 11.1329 6.49833 11.2 6.3 11.2ZM3.5 11.2C3.30167 11.2 3.13542 11.1329 3.00125 10.9987C2.86708 10.8646 2.8 10.6983 2.8 10.5C2.8 10.3017 2.86708 10.1354 3.00125 10.0013C3.13542 9.86708 3.30167 9.8 3.5 9.8C3.69833 9.8 3.86458 9.86708 3.99875 10.0013C4.13292 10.1354 4.2 10.3017 4.2 10.5C4.2 10.6983 4.13292 10.8646 3.99875 10.9987C3.86458 11.1329 3.69833 11.2 3.5 11.2ZM9.1 11.2C8.90167 11.2 8.73542 11.1329 8.60125 10.9987C8.46708 10.8646 8.4 10.6983 8.4 10.5C8.4 10.3017 8.46708 10.1354 8.60125 10.0013C8.73542 9.86708 8.90167 9.8 9.1 9.8C9.29833 9.8 9.46458 9.86708 9.59875 10.0013C9.73292 10.1354 9.8 10.3017 9.8 10.5C9.8 10.6983 9.73292 10.8646 9.59875 10.9987C9.46458 11.1329 9.29833 11.2 9.1 11.2ZM1.4 14C1.015 14 0.685417 13.8629 0.41125 13.5887C0.137083 13.3146 0 12.985 0 12.6V2.8C0 2.415 0.137083 2.08542 0.41125 1.81125C0.685417 1.53708 1.015 1.4 1.4 1.4H2.1V0H3.5V1.4H9.1V0H10.5V1.4H11.2C11.585 1.4 11.9146 1.53708 12.1888 1.81125C12.4629 2.08542 12.6 2.415 12.6 2.8V12.6C12.6 12.985 12.4629 13.3146 12.1888 13.5887C11.9146 13.8629 11.585 14 11.2 14H1.4ZM1.4 12.6H11.2V5.6H1.4V12.6Z" fill="white"/>
</svg>
