<svg width="16" height="22" viewBox="0 0 16 22" fill="none" xmlns="http://www.w3.org/2000/svg">
<path d="M7.93571 22L12.4143 17.5607L7.93571 13.1214L6.28571 14.7714L7.975 16.4607C7.24167 16.4869 6.52798 16.369 5.83393 16.1071C5.13988 15.8452 4.51786 15.4393 3.96786 14.8893C3.44405 14.3655 3.04464 13.7631 2.76964 13.0821C2.49464 12.4012 2.35714 11.7202 2.35714 11.0393C2.35714 10.594 2.41607 10.1488 2.53393 9.70357C2.65179 9.25833 2.81548 8.82619 3.025 8.40714L1.29643 6.67857C0.851191 7.33333 0.52381 8.02738 0.314286 8.76071C0.104762 9.49405 0 10.2405 0 11C0 11.9952 0.196429 12.9774 0.589286 13.9464C0.982143 14.9155 1.55833 15.7798 2.31786 16.5393C3.07738 17.2988 3.92857 17.8685 4.87143 18.2482C5.81429 18.628 6.78333 18.831 7.77857 18.8571L6.28571 20.35L7.93571 22ZM14.4179 15.3214C14.8631 14.6667 15.1905 13.9726 15.4 13.2393C15.6095 12.506 15.7143 11.7595 15.7143 11C15.7143 10.0048 15.5244 9.01607 15.1446 8.03393C14.7649 7.05179 14.1952 6.18095 13.4357 5.42143C12.6762 4.66191 11.8185 4.09881 10.8625 3.73214C9.90655 3.36548 8.93095 3.18214 7.93571 3.18214L9.42857 1.65L7.77857 0L3.3 4.43929L7.77857 8.87857L9.42857 7.22857L7.7 5.5C8.40714 5.5 9.12738 5.6375 9.86071 5.9125C10.594 6.1875 11.2226 6.5869 11.7464 7.11071C12.2702 7.63452 12.6696 8.23691 12.9446 8.91786C13.2196 9.59881 13.3571 10.2798 13.3571 10.9607C13.3571 11.406 13.2982 11.8512 13.1804 12.2964C13.0625 12.7417 12.8988 13.1738 12.6893 13.5929L14.4179 15.3214Z" fill="white"/>
</svg>
